<?xml version="1.0" encoding="UTF-8" ?>
<!DOCTYPE svg PUBLIC "-//W3C//DTD SVG 1.1//EN" "http://www.w3.org/Graphics/SVG/1.1/DTD/svg11.dtd">
<svg width="1640pt" height="277pt" viewBox="0 0 1640 277" version="1.1" xmlns="http://www.w3.org/2000/svg">
<g id="#f3a955ff">
<path fill="#f3a955" opacity="1.00" d=" M 1486.30 38.36 C 1498.18 26.40 1509.99 14.37 1521.94 2.47 C 1522.82 3.60 1523.72 4.71 1524.65 5.82 C 1524.18 6.54 1523.73 7.25 1523.29 7.96 C 1526.45 10.47 1528.98 13.63 1531.88 16.42 C 1532.82 17.37 1534.15 16.14 1534.97 15.59 C 1560.21 41.48 1586.14 66.72 1611.66 92.35 C 1614.99 95.58 1618.17 99.00 1621.66 102.08 C 1621.23 102.57 1620.38 103.54 1619.95 104.03 C 1623.02 107.07 1625.97 110.24 1629.08 113.26 C 1632.12 111.28 1633.80 114.53 1635.90 116.24 C 1631.67 121.53 1626.40 125.86 1621.82 130.83 C 1602.19 150.69 1582.42 170.43 1562.50 190.01 C 1565.02 199.38 1562.27 209.73 1555.93 216.98 C 1551.86 221.23 1547.64 225.34 1543.43 229.45 C 1536.97 235.67 1529.02 241.43 1526.35 250.41 C 1524.74 255.06 1523.84 260.37 1525.96 265.01 C 1527.09 267.08 1528.58 268.94 1529.74 271.01 C 1525.51 271.13 1521.65 268.97 1518.25 266.70 C 1513.55 262.94 1510.94 257.11 1509.95 251.28 C 1508.80 242.51 1512.68 233.35 1519.64 227.93 C 1515.71 222.93 1514.38 215.88 1516.71 209.91 C 1518.29 205.47 1521.59 201.86 1525.52 199.35 C 1524.16 203.59 1523.92 208.53 1526.84 212.20 C 1530.68 218.27 1539.79 219.60 1545.45 215.36 C 1552.36 209.97 1555.64 200.22 1553.28 191.79 C 1551.37 185.12 1548.10 178.74 1543.27 173.71 C 1540.79 170.81 1537.81 168.37 1535.64 165.23 C 1546.11 154.93 1556.60 144.60 1566.77 134.00 C 1566.90 127.43 1560.46 122.83 1554.44 122.22 C 1551.38 121.55 1548.29 122.23 1545.30 122.78 C 1545.29 119.95 1545.30 117.13 1545.28 114.30 L 1543.74 114.81 C 1544.28 107.75 1545.06 100.70 1545.55 93.64 C 1547.22 83.46 1549.87 73.50 1552.86 63.64 C 1544.39 63.49 1535.92 63.52 1527.45 63.62 C 1530.74 75.21 1533.39 87.00 1534.61 99.00 C 1534.96 102.89 1535.10 106.81 1535.78 110.66 C 1537.12 111.79 1538.74 112.52 1540.38 113.18 L 1541.13 113.42 C 1540.99 113.54 1540.72 113.77 1540.59 113.88 C 1540.02 113.87 1538.87 113.85 1538.30 113.83 C 1534.40 113.01 1531.83 109.59 1530.05 106.28 C 1527.82 105.94 1525.16 106.82 1523.23 105.60 C 1522.21 102.83 1521.72 99.66 1519.46 97.56 C 1515.14 93.36 1507.58 93.15 1503.18 97.33 C 1500.57 99.52 1499.48 102.90 1499.17 106.18 C 1496.78 106.22 1494.40 106.25 1492.04 106.39 C 1490.51 109.12 1488.74 112.00 1485.79 113.35 C 1483.20 114.79 1480.17 114.61 1477.32 114.67 C 1477.27 117.42 1477.27 120.16 1477.32 122.91 C 1471.80 122.48 1465.58 121.33 1460.76 124.80 C 1457.62 126.63 1456.05 130.14 1455.44 133.58 C 1474.09 133.86 1492.74 133.59 1511.39 133.71 C 1511.45 162.49 1511.51 191.26 1511.35 220.03 C 1481.04 189.94 1450.88 159.69 1420.56 129.60 C 1426.07 123.51 1432.21 118.04 1437.84 112.07 C 1434.46 108.88 1431.20 105.57 1427.95 102.25 C 1422.24 108.08 1416.26 113.65 1410.72 119.63 C 1409.75 118.62 1407.88 117.93 1408.32 116.23 C 1434.45 90.41 1460.16 64.17 1486.30 38.36 M 1501.32 29.81 C 1504.39 32.53 1507.24 35.50 1509.98 38.56 C 1510.36 38.59 1511.12 38.65 1511.50 38.68 C 1517.50 32.34 1523.87 26.36 1529.92 20.07 C 1526.66 16.85 1523.39 13.65 1520.09 10.48 C 1513.91 17.00 1506.93 22.79 1501.32 29.81 M 1478.14 52.09 C 1478.26 52.56 1478.48 53.49 1478.59 53.96 C 1481.85 56.55 1484.31 60.01 1487.73 62.42 C 1493.72 55.82 1500.68 50.10 1506.33 43.21 C 1503.78 40.89 1501.39 38.42 1498.99 35.98 C 1498.14 35.28 1497.41 33.98 1496.14 34.36 C 1490.06 40.18 1484.31 46.36 1478.14 52.09 M 1454.82 75.35 C 1457.37 79.29 1461.25 82.09 1464.27 85.66 C 1470.63 79.19 1477.44 73.11 1483.35 66.22 C 1480.23 63.41 1477.45 60.24 1474.36 57.42 C 1474.05 57.38 1473.44 57.32 1473.13 57.28 C 1466.99 63.26 1461.04 69.45 1454.82 75.35 M 1431.27 98.98 C 1434.49 102.32 1437.83 105.56 1441.09 108.86 C 1445.79 104.30 1450.37 99.63 1455.04 95.04 C 1456.84 93.21 1458.83 91.49 1460.12 89.22 C 1456.67 86.28 1453.76 82.77 1450.20 79.98 C 1444.00 86.42 1437.55 92.62 1431.27 98.98 M 1614.00 109.95 C 1608.23 115.90 1601.99 121.44 1596.67 127.80 C 1600.26 130.52 1602.60 135.08 1606.84 136.80 C 1612.54 130.21 1619.20 124.52 1625.08 118.08 C 1622.28 115.47 1619.70 112.65 1616.95 110.00 C 1616.19 108.94 1614.71 108.83 1614.00 109.95 M 1573.36 150.45 C 1573.36 150.79 1573.36 151.46 1573.36 151.79 C 1576.28 154.78 1579.45 157.54 1582.15 160.75 C 1588.96 154.82 1594.88 147.93 1601.58 141.87 C 1598.39 138.59 1595.09 135.42 1591.90 132.16 C 1585.64 138.17 1579.52 144.34 1573.36 150.45 M 1549.53 174.06 C 1552.77 177.29 1555.99 180.54 1559.13 183.89 C 1565.83 177.77 1571.87 170.98 1578.59 164.89 C 1575.29 161.67 1571.98 158.48 1568.88 155.08 C 1562.25 161.22 1556.12 167.89 1549.53 174.06 Z" />
<path fill="#f3a955" opacity="1.00" d=" M 1532.26 65.38 C 1532.79 65.40 1533.86 65.43 1534.39 65.45 C 1534.38 67.47 1534.38 69.48 1534.41 71.50 C 1533.86 71.52 1532.78 71.54 1532.24 71.56 C 1532.23 69.50 1532.23 67.44 1532.26 65.38 Z" />
<path fill="#f3a955" opacity="1.00" d=" M 1536.66 65.51 C 1537.19 65.46 1538.25 65.37 1538.78 65.33 C 1538.77 67.41 1538.77 69.49 1538.79 71.58 C 1538.25 71.56 1537.18 71.51 1536.64 71.49 C 1536.63 69.50 1536.64 67.50 1536.66 65.51 Z" />
<path fill="#f3a955" opacity="1.00" d=" M 1541.36 65.40 C 1541.92 65.41 1543.05 65.41 1543.61 65.42 C 1543.59 67.46 1543.59 69.49 1543.60 71.54 C 1543.04 71.53 1541.90 71.53 1541.33 71.53 C 1541.32 69.49 1541.33 67.45 1541.36 65.40 Z" />
<path fill="#f3a955" opacity="1.00" d=" M 1545.76 65.46 C 1546.59 65.48 1547.43 65.49 1548.30 65.51 C 1548.27 67.49 1548.26 69.47 1548.28 71.45 C 1547.42 71.46 1546.58 71.48 1545.77 71.50 C 1545.75 69.49 1545.75 67.47 1545.76 65.46 Z" />
<path fill="#f3a955" opacity="1.00" d=" M 1508.31 99.45 C 1513.10 97.00 1519.41 101.77 1518.56 107.03 C 1517.67 111.16 1512.87 114.62 1508.74 112.78 C 1505.61 112.00 1504.41 108.74 1503.54 106.01 C 1504.35 103.42 1505.45 100.39 1508.31 99.45 Z" />
<path fill="#f3a955" opacity="1.00" d=" M 1489.62 115.89 C 1495.18 114.12 1500.84 120.67 1498.03 125.90 C 1495.91 130.86 1487.83 131.35 1485.26 126.60 C 1482.66 122.67 1485.09 116.96 1489.62 115.89 Z" />
<path fill="#f3a955" opacity="1.00" d=" M 1527.70 115.78 C 1533.13 114.51 1538.58 120.71 1535.94 125.88 C 1533.66 131.05 1525.17 131.40 1522.71 126.25 C 1520.13 122.20 1523.29 116.71 1527.70 115.78 Z" />
</g>
<g id="#5f616cff">
<path fill="#5f616c" opacity="1.00" d=" M 5.30 43.70 C 24.40 29.90 43.75 16.45 62.76 2.52 C 62.84 41.67 62.75 80.82 62.80 119.97 C 63.10 125.72 63.80 131.85 67.31 136.64 C 70.62 141.27 76.42 143.85 82.06 143.72 C 112.04 143.70 142.02 143.71 172.01 143.71 C 175.05 143.73 178.77 143.50 180.59 140.64 C 182.33 138.20 180.47 135.20 179.12 133.03 C 171.24 122.35 161.53 113.20 151.87 104.17 C 149.70 102.66 150.51 99.72 151.90 97.98 C 161.01 84.73 170.14 71.50 179.26 58.26 C 181.38 55.31 183.17 52.03 185.93 49.61 C 187.42 49.22 188.42 50.62 189.41 51.47 C 199.39 63.19 206.66 77.11 211.10 91.83 C 218.21 116.34 217.72 142.37 214.03 167.42 C 211.96 179.66 208.35 192.24 199.94 201.72 C 194.48 196.93 187.23 193.94 179.89 194.60 C 172.82 195.34 165.87 198.77 161.61 204.57 C 158.36 208.76 157.03 214.05 156.35 219.22 C 154.80 219.27 153.25 219.33 151.70 219.40 C 151.54 209.95 145.88 200.80 137.14 196.99 C 126.40 191.57 112.15 195.54 105.50 205.46 C 102.76 209.59 101.30 214.49 101.12 219.43 C 90.08 219.62 79.04 219.27 68.01 219.22 C 53.40 218.61 38.01 215.14 26.97 204.95 C 19.92 198.50 15.20 189.82 12.67 180.66 C 7.27 162.71 10.32 143.77 8.91 125.38 C 8.45 117.61 8.66 109.83 8.27 102.06 C 7.29 91.72 7.77 81.29 6.77 70.95 C 6.62 61.84 5.88 52.78 5.30 43.70 Z" />
<path fill="#5f616c" opacity="1.00" d=" M 723.46 43.70 C 742.64 29.90 761.92 16.23 781.16 2.50 C 781.24 42.03 781.16 81.57 781.20 121.11 C 781.28 126.92 782.39 133.13 786.29 137.67 C 789.65 141.59 794.83 143.78 799.97 143.72 C 829.98 143.70 860.00 143.72 890.01 143.71 C 893.01 143.72 896.56 143.27 898.35 140.55 C 899.48 137.73 898.13 134.75 896.37 132.55 C 888.46 122.20 879.22 112.94 869.48 104.33 C 867.55 102.92 867.94 100.08 869.25 98.37 C 878.16 85.26 887.23 72.25 896.21 59.18 C 898.67 55.74 900.73 51.94 903.96 49.12 C 909.93 53.56 913.62 60.26 917.60 66.39 C 931.53 89.51 935.25 117.17 934.20 143.73 C 946.04 143.85 957.88 143.90 969.71 143.73 C 973.20 143.88 977.45 141.00 976.10 137.09 C 973.51 129.93 966.78 125.35 962.97 118.93 C 962.01 117.22 962.42 115.13 963.51 113.60 C 971.67 101.08 979.78 88.52 987.93 75.99 C 989.48 73.98 991.26 71.40 994.05 71.27 C 996.68 70.88 998.53 73.21 999.76 75.20 C 1010.11 96.40 1012.53 120.46 1011.49 143.77 C 1021.32 143.83 1031.15 143.87 1040.98 143.77 C 1043.92 143.77 1047.53 142.62 1048.29 139.39 C 1048.65 136.79 1047.03 134.44 1045.62 132.41 C 1040.57 125.85 1034.91 119.78 1029.04 113.96 C 1027.25 112.38 1026.24 110.21 1025.46 108.02 C 1027.90 102.50 1031.53 97.65 1034.65 92.52 C 1040.67 82.92 1046.72 73.33 1052.77 63.75 C 1054.29 61.68 1056.10 59.00 1059.02 59.14 C 1061.93 58.83 1063.84 61.48 1065.31 63.59 C 1073.81 77.02 1079.28 92.28 1081.73 107.96 C 1083.98 119.78 1083.58 131.86 1083.50 143.84 C 1092.33 143.75 1101.16 143.89 1109.99 143.78 C 1112.73 143.79 1115.94 143.08 1117.35 140.46 C 1118.43 137.72 1116.84 134.90 1115.28 132.72 C 1107.40 122.37 1098.08 113.25 1088.49 104.52 C 1086.19 102.81 1087.13 99.61 1088.68 97.71 C 1099.34 82.32 1109.85 66.82 1120.59 51.49 C 1121.82 49.25 1124.89 50.00 1126.06 51.91 C 1142.59 71.20 1151.30 96.40 1152.67 121.59 C 1153.37 137.58 1152.91 153.70 1150.22 169.51 C 1147.83 181.58 1144.13 194.21 1135.15 203.11 C 1125.94 212.49 1112.82 216.73 1100.08 218.48 C 1090.25 220.02 1080.28 219.30 1070.39 219.48 C 1070.38 212.21 1070.39 204.94 1070.38 197.67 C 1062.47 209.00 1049.19 215.12 1035.95 217.63 C 1024.50 220.04 1012.77 219.33 1001.16 219.54 C 1000.74 211.04 1001.36 202.50 1000.75 193.99 C 994.70 204.89 983.74 212.28 971.92 215.64 C 957.36 220.25 941.92 219.52 926.85 219.54 C 925.45 213.82 923.53 207.95 919.39 203.59 C 915.78 200.03 911.54 196.89 906.57 195.58 C 897.76 192.79 887.70 195.74 881.22 202.15 C 877.11 206.61 874.28 212.53 874.29 218.67 C 872.69 219.00 871.08 219.34 869.48 219.58 C 868.78 211.01 864.77 202.26 856.89 198.11 C 845.84 191.15 829.78 194.84 822.84 205.86 C 820.07 209.87 819.12 214.73 818.49 219.48 C 806.65 219.43 794.80 219.54 782.97 218.98 C 768.01 218.16 752.31 213.40 742.08 201.89 C 731.65 190.25 728.14 174.23 727.58 159.02 C 727.32 120.55 725.79 82.10 723.46 43.70 Z" />
<path fill="#5f616c" opacity="1.00" d=" M 1217.53 8.60 C 1220.37 6.60 1223.07 4.38 1226.19 2.79 C 1226.27 42.52 1226.17 82.25 1226.23 121.99 C 1226.16 128.05 1227.84 134.48 1232.29 138.82 C 1236.15 142.57 1241.69 144.08 1246.99 143.73 C 1268.61 143.30 1290.42 145.01 1311.85 141.33 C 1314.44 140.95 1317.35 139.86 1318.24 137.11 C 1318.41 133.61 1315.62 130.95 1313.52 128.49 C 1300.55 114.54 1286.56 101.59 1272.46 88.80 C 1274.08 78.50 1276.18 68.27 1278.05 58.00 C 1279.20 53.71 1279.29 49.12 1280.88 44.97 C 1285.26 42.55 1290.42 41.77 1295.11 39.97 C 1323.32 30.89 1351.58 21.97 1379.77 12.85 C 1379.90 30.29 1379.74 47.73 1379.86 65.16 C 1365.91 69.04 1351.97 72.96 1337.97 76.66 C 1336.16 76.10 1336.07 78.17 1337.05 78.82 C 1347.51 91.36 1355.71 106.10 1359.23 122.14 C 1362.49 136.53 1361.61 151.58 1358.52 165.91 C 1355.63 179.19 1349.18 191.92 1339.02 201.10 C 1329.47 209.92 1317.20 215.44 1304.52 217.90 C 1294.80 219.88 1284.86 219.28 1275.02 219.47 C 1259.68 219.39 1244.32 219.70 1228.99 219.08 C 1216.47 218.37 1203.54 215.42 1193.39 207.70 C 1182.34 199.56 1176.22 186.30 1173.98 173.04 C 1171.55 160.49 1172.73 147.66 1172.27 134.98 C 1171.57 124.69 1171.74 114.37 1171.39 104.07 C 1170.76 83.92 1169.57 63.78 1168.42 43.64 C 1184.79 31.96 1201.15 20.27 1217.53 8.60 Z" />
<path fill="#5f616c" opacity="1.00" d=" M 275.48 35.95 C 279.50 37.41 282.44 40.69 285.81 43.18 C 301.82 57.15 315.93 73.84 324.50 93.44 C 331.44 109.17 334.47 126.51 333.60 143.66 C 342.11 143.40 351.15 144.95 359.18 141.34 C 363.34 139.62 366.51 135.51 366.54 130.92 C 367.32 115.94 373.16 100.72 384.63 90.70 C 396.09 80.74 412.50 78.51 427.02 81.29 C 439.87 83.74 450.73 92.48 457.74 103.29 C 467.52 118.40 472.54 136.14 474.36 153.93 C 475.00 165.02 475.60 176.51 471.50 187.07 C 466.00 201.61 454.05 214.25 438.91 218.67 C 429.53 221.23 419.44 221.13 410.12 218.38 C 400.93 215.50 392.83 209.69 386.61 202.39 C 384.43 199.96 382.82 197.05 380.44 194.80 C 376.61 202.91 371.54 210.96 363.64 215.63 C 359.57 218.15 354.76 219.47 349.97 219.39 C 338.56 219.29 327.16 219.64 315.75 219.39 C 315.78 212.22 315.81 205.05 315.74 197.88 C 302.26 212.90 281.63 218.89 262.02 219.46 C 252.08 219.50 242.15 219.43 232.22 219.48 C 232.30 194.24 231.99 168.98 232.38 143.75 C 247.27 143.84 262.17 143.90 277.06 143.71 C 284.31 143.60 291.66 143.34 298.65 141.20 C 299.72 136.29 295.45 132.71 292.45 129.51 C 278.79 116.39 262.52 106.41 246.14 97.08 C 255.84 76.67 265.93 56.43 275.48 35.95 M 420.46 144.68 C 413.92 146.37 407.91 150.67 404.95 156.85 C 399.46 166.82 402.28 180.60 411.59 187.29 C 418.49 192.34 428.03 193.81 435.89 190.14 C 444.65 186.61 450.46 177.36 450.37 167.99 C 450.31 159.40 445.37 150.97 437.76 146.91 C 432.51 144.15 426.24 143.06 420.46 144.68 Z" />
<path fill="#5f616c" opacity="1.00" d=" M 669.27 72.32 C 670.14 70.90 671.44 68.39 673.44 69.64 C 682.64 76.81 688.36 87.34 693.24 97.70 C 703.77 120.54 709.43 145.77 708.42 170.95 C 707.56 190.74 704.44 211.02 694.73 228.56 C 687.44 241.82 675.95 252.74 662.24 259.19 C 646.83 266.43 629.70 269.27 612.79 269.84 C 603.87 270.94 594.92 269.83 586.01 269.38 C 576.95 268.48 567.96 266.72 559.28 264.00 C 559.18 238.87 559.23 213.74 559.25 188.61 C 566.19 192.73 574.14 194.63 582.01 196.11 C 592.91 197.78 603.97 198.30 615.00 198.17 C 626.99 197.60 639.11 197.33 650.85 194.56 C 658.43 192.89 666.28 190.46 672.02 184.99 C 675.92 181.29 678.03 175.30 676.00 170.14 C 673.37 164.62 669.54 159.78 665.82 154.97 C 658.10 145.44 650.16 135.91 640.41 128.36 C 650.32 109.84 659.48 90.91 669.27 72.32 Z" />
<path fill="#5f616c" opacity="1.00" d=" M 605.49 140.74 C 616.79 138.06 629.41 144.15 634.18 154.76 C 638.00 162.79 637.26 172.86 632.16 180.17 C 627.60 187.16 619.23 191.11 611.00 191.21 C 603.27 190.96 595.39 187.50 590.78 181.15 C 586.36 175.18 584.54 167.26 586.32 160.01 C 588.20 150.52 596.12 142.84 605.49 140.74 Z" />
<path fill="#5f616c" opacity="1.00" d=" M 178.52 204.81 C 185.39 203.69 192.80 206.33 197.34 211.61 C 201.54 216.95 203.61 224.42 201.13 230.96 C 199.32 237.62 193.70 242.89 187.04 244.56 C 181.39 246.31 175.13 244.94 170.24 241.79 C 164.11 237.79 160.79 230.19 161.54 222.97 C 162.11 213.92 169.53 206.01 178.52 204.81 Z" />
<path fill="#5f616c" opacity="1.00" d=" M 121.27 205.18 C 129.38 203.02 138.70 206.48 143.28 213.55 C 148.53 221.49 147.43 232.92 140.56 239.55 C 134.66 245.20 125.28 247.04 117.84 243.45 C 109.04 239.82 104.08 229.24 106.49 220.12 C 108.10 212.84 113.96 206.80 121.27 205.18 Z" />
<path fill="#5f616c" opacity="1.00" d=" M 836.67 205.83 C 842.67 203.56 849.62 204.41 855.02 207.82 C 860.39 211.00 863.50 217.09 864.22 223.15 C 864.92 231.65 859.90 240.58 851.79 243.65 C 841.95 248.17 828.91 243.07 825.10 232.86 C 820.44 222.70 826.02 209.37 836.67 205.83 Z" />
<path fill="#5f616c" opacity="1.00" d=" M 895.96 204.81 C 905.73 203.03 916.14 209.30 918.83 218.91 C 921.37 226.95 918.31 236.40 911.46 241.35 C 906.29 244.99 899.41 246.45 893.34 244.37 C 885.60 242.19 879.72 234.97 879.09 226.96 C 877.77 216.59 885.56 206.23 895.96 204.81 Z" />
</g>
<g id="#4f464051">
<path fill="#4f4640" opacity="0.32" d=" M 1543.21 112.17 C 1543.97 105.99 1543.79 99.66 1545.55 93.64 C 1545.06 100.70 1544.28 107.75 1543.74 114.81 L 1545.28 114.30 C 1545.30 117.13 1545.29 119.95 1545.30 122.78 C 1548.29 122.23 1551.38 121.55 1554.44 122.22 C 1551.14 122.77 1547.84 123.24 1544.53 123.53 C 1544.48 120.83 1544.47 118.12 1544.51 115.42 C 1542.37 115.26 1540.25 115.06 1538.15 114.82 L 1538.30 113.83 C 1538.87 113.85 1540.02 113.87 1540.59 113.88 C 1540.72 113.77 1540.99 113.54 1541.13 113.42 C 1541.65 113.11 1542.69 112.48 1543.21 112.17 Z" />
</g>
</svg>
