<?xml version="1.0" encoding="UTF-8" ?>
<!DOCTYPE svg PUBLIC "-//W3C//DTD SVG 1.1//EN" "http://www.w3.org/Graphics/SVG/1.1/DTD/svg11.dtd">
<svg width="373pt" height="135pt" viewBox="0 0 373 135" version="1.1" xmlns="http://www.w3.org/2000/svg">
<g id="#1c1f2eff">
<path fill="#1c1f2e" opacity="1.00" d=" M 274.35 15.05 C 275.19 13.04 279.77 13.12 280.57 15.12 C 278.50 15.13 276.42 15.09 274.35 15.05 Z" />
<path fill="#1c1f2e" opacity="1.00" d=" M 259.11 34.47 C 258.38 33.37 258.61 32.55 259.82 32.04 C 260.04 32.25 260.48 32.68 260.70 32.90 C 260.87 34.24 260.35 34.77 259.11 34.47 Z" />
<path fill="#1c1f2e" opacity="1.00" d=" M 281.31 34.30 C 289.50 31.28 299.28 38.23 298.90 46.98 C 299.02 54.27 292.30 60.75 284.98 60.14 C 277.33 60.23 270.84 52.57 272.16 45.03 C 272.83 40.11 276.60 35.80 281.31 34.30 Z" />
<path fill="#1c1f2e" opacity="1.00" d=" M 315.36 40.52 C 322.60 38.25 330.84 43.29 332.34 50.66 C 334.52 59.26 325.87 68.11 317.23 66.59 C 310.75 65.66 305.30 59.66 305.70 52.99 C 305.74 47.30 309.97 42.11 315.36 40.52 Z" />
<path fill="#1c1f2e" opacity="1.00" d=" M 30.75 61.67 C 32.23 64.60 31.26 68.07 31.80 71.22 C 31.42 68.34 31.18 65.46 30.74 62.59 L 30.75 61.67 Z" />
<path fill="#1c1f2e" opacity="1.00" d=" M 296.42 62.45 C 300.67 60.59 305.75 64.94 304.45 69.40 C 303.46 73.55 297.73 75.51 294.63 72.40 C 291.41 69.68 292.45 63.88 296.42 62.45 Z" />
<path fill="#1c1f2e" opacity="1.00" d=" M 274.35 69.40 C 282.50 66.33 292.51 73.18 292.01 82.00 C 292.42 89.78 284.55 96.36 276.98 95.17 C 269.85 94.54 264.19 87.29 265.33 80.21 C 265.97 75.30 269.64 70.93 274.35 69.40 Z" />
<path fill="#1c1f2e" opacity="1.00" d=" M 309.34 75.44 C 317.17 73.42 325.73 79.94 325.78 88.02 C 326.24 96.32 317.48 103.58 309.40 101.44 C 302.28 99.96 297.28 92.25 299.27 85.15 C 300.37 80.32 304.55 76.49 309.34 75.44 Z" />
</g>
<g id="#5f616cff">
<path fill="#5f616c" opacity="1.00" d=" M 259.82 32.04 C 260.71 24.29 265.68 15.38 274.35 15.05 C 276.42 15.09 278.50 15.13 280.57 15.12 C 283.84 15.16 286.96 16.30 289.99 17.43 C 278.78 19.08 268.57 24.87 260.70 32.90 C 260.48 32.68 260.04 32.25 259.82 32.04 Z" />
<path fill="#5f616c" opacity="1.00" d=" M 191.60 29.61 C 195.33 23.92 202.30 21.11 208.94 21.19 C 216.61 21.22 224.29 21.20 231.96 21.17 C 229.41 23.89 226.71 26.46 224.09 29.11 C 218.86 35.51 209.20 29.23 203.08 34.03 C 201.68 35.36 201.26 37.34 200.42 39.02 C 199.82 40.12 199.69 41.41 199.96 42.62 C 196.28 40.92 192.73 38.86 189.48 36.43 C 188.95 33.98 190.37 31.63 191.60 29.61 Z" />
<path fill="#5f616c" opacity="1.00" d=" M 331.15 28.09 C 338.34 29.65 346.93 31.10 350.70 38.29 C 354.83 45.10 351.79 53.10 349.49 59.96 C 347.66 47.48 340.83 36.09 331.15 28.09 Z" />
<path fill="#5f616c" opacity="1.00" d=" M 112.04 47.49 C 115.48 43.91 119.27 40.67 122.80 37.16 C 122.62 54.47 123.11 71.80 122.56 89.09 C 119.07 89.09 115.55 89.33 112.08 88.90 C 111.51 84.29 111.85 79.63 111.80 75.00 C 111.93 65.83 111.55 56.65 112.04 47.49 Z" />
<path fill="#5f616c" opacity="1.00" d=" M 152.96 47.29 C 155.91 43.27 159.80 39.97 163.75 36.95 C 164.02 50.70 163.44 64.47 164.00 78.20 C 169.64 78.83 175.33 78.34 180.99 78.53 C 183.47 78.42 186.88 78.81 188.10 76.05 C 190.00 72.09 188.72 67.56 189.43 63.36 C 192.44 59.79 196.13 56.87 199.57 53.72 C 200.89 61.13 200.01 68.68 200.04 76.16 C 199.95 82.56 194.67 88.53 188.23 89.02 C 179.75 89.20 171.27 89.12 162.79 89.10 C 157.64 88.60 153.41 84.23 152.86 79.13 C 152.68 68.53 152.52 57.90 152.96 47.29 Z" />
<path fill="#5f616c" opacity="1.00" d=" M 206.07 46.12 C 209.31 42.78 212.99 39.80 216.65 36.89 C 216.71 54.29 216.92 71.72 216.54 89.10 C 213.09 89.09 209.61 89.33 206.17 88.91 C 205.75 74.66 206.07 60.38 206.07 46.12 Z" />
<path fill="#5f616c" opacity="1.00" d=" M 32.23 50.28 C 41.36 50.25 50.54 49.91 59.63 50.45 C 63.39 53.55 66.50 57.39 69.87 60.90 C 57.29 61.23 44.68 61.14 32.11 60.99 C 31.82 57.43 31.85 53.83 32.23 50.28 Z" />
<path fill="#5f616c" opacity="1.00" d=" M 136.56 61.48 C 139.67 57.67 143.42 54.41 146.99 51.03 C 146.97 63.07 147.05 75.12 146.97 87.17 C 146.90 93.27 144.15 99.55 138.95 102.97 C 136.86 104.37 134.11 105.42 131.63 104.47 C 129.12 101.45 127.07 98.06 125.21 94.62 C 127.79 93.85 130.80 93.86 132.87 91.90 C 134.85 90.19 135.90 87.62 136.11 85.04 C 136.78 77.21 135.68 69.29 136.56 61.48 Z" />
<path fill="#5f616c" opacity="1.00" d=" M 95.51 61.47 C 98.55 57.90 102.00 54.61 105.81 51.86 C 106.16 57.90 105.89 63.95 105.99 70.00 C 105.89 73.53 106.19 77.29 104.52 80.53 C 102.05 85.51 96.67 88.71 91.19 89.02 C 73.12 89.20 55.04 89.13 36.97 89.04 C 33.14 88.97 29.07 88.43 25.91 86.06 C 22.67 83.69 20.89 79.69 20.93 75.71 C 20.99 73.99 21.01 72.26 21.03 70.53 C 23.83 67.39 27.38 65.07 30.74 62.59 C 31.18 65.46 31.42 68.34 31.80 71.22 C 32.00 74.94 34.94 78.81 39.01 78.43 C 54.00 78.61 69.00 78.36 83.99 78.54 C 87.11 78.45 90.92 78.78 93.10 76.05 C 96.58 71.99 94.46 66.26 95.51 61.47 Z" />
<path fill="#5f616c" opacity="1.00" d=" M 247.47 77.08 C 249.26 82.54 250.80 88.15 253.83 93.09 C 256.66 98.36 260.92 102.61 265.02 106.88 C 260.25 105.71 255.10 104.91 251.10 101.85 C 247.92 99.13 245.45 95.28 245.17 91.04 C 244.93 86.27 246.30 81.64 247.47 77.08 Z" />
<path fill="#5f616c" opacity="1.00" d=" M 155.87 95.37 C 166.95 94.61 178.08 95.10 189.18 95.08 C 192.14 95.41 196.27 96.56 196.97 99.86 C 194.54 102.72 191.75 105.30 188.71 107.50 C 186.62 107.37 184.96 105.58 182.89 105.19 C 177.14 104.27 171.16 105.84 165.51 104.39 C 162.03 101.69 158.89 98.55 155.87 95.37 Z" />
<path fill="#5f616c" opacity="1.00" d=" M 310.22 117.34 C 321.41 114.86 331.21 108.34 338.88 99.96 C 337.30 106.68 335.90 114.53 329.49 118.42 C 323.28 122.73 315.61 120.09 308.87 118.94 C 309.20 118.54 309.88 117.74 310.22 117.34 Z" />
<path fill="#5f616c" opacity="1.00" d=" M 175.04 107.13 C 178.65 107.32 183.17 106.16 185.92 109.17 C 185.63 111.31 183.75 112.75 182.04 113.80 C 179.42 111.91 177.20 109.52 175.04 107.13 Z" />
</g>
<g id="#5a535564">
<path fill="#5a5355" opacity="0.39" d=" M 293.78 21.93 C 296.46 20.09 301.20 20.57 304.28 21.89 C 300.78 21.95 297.28 21.97 293.78 21.93 Z" />
<path fill="#5a5355" opacity="0.39" d=" M 288.20 22.18 L 289.21 21.78 L 289.97 22.30 C 289.48 22.50 288.50 22.88 288.01 23.07 L 288.20 22.18 Z" />
<path fill="#5a5355" opacity="0.39" d=" M 307.97 22.35 L 308.74 21.81 L 309.75 22.22 L 309.95 23.09 C 309.45 22.91 308.47 22.53 307.97 22.35 Z" />
<path fill="#5a5355" opacity="0.39" d=" M 199.96 42.62 C 199.69 41.41 199.82 40.12 200.42 39.02 C 201.79 39.68 201.75 42.73 199.96 42.62 Z" />
<path fill="#5a5355" opacity="0.39" d=" M 205.16 45.99 L 206.07 46.12 C 206.07 60.38 205.75 74.66 206.17 88.91 C 209.61 89.33 213.09 89.09 216.54 89.10 L 217.22 89.80 C 213.23 90.18 209.19 90.25 205.20 89.78 C 204.63 83.20 205.14 76.59 204.98 70.00 C 205.12 62.00 204.68 53.98 205.16 45.99 Z" />
<path fill="#5a5355" opacity="0.39" d=" M 111.29 47.00 L 112.04 47.49 C 111.55 56.65 111.93 65.83 111.80 75.00 C 111.85 79.63 111.51 84.29 112.08 88.90 C 115.55 89.33 119.07 89.09 122.56 89.09 L 123.23 89.80 C 119.26 90.19 115.23 90.26 111.27 89.73 C 110.57 81.51 111.16 73.24 110.98 65.00 C 111.08 59.00 110.64 52.98 111.29 47.00 Z" />
<path fill="#5a5355" opacity="0.39" d=" M 152.15 47.06 L 152.96 47.29 C 152.52 57.90 152.68 68.53 152.86 79.13 C 152.80 77.75 151.88 76.53 152.15 75.08 C 152.24 65.74 152.15 56.40 152.15 47.06 Z" />
<path fill="#5a5355" opacity="0.39" d=" M 147.03 50.14 L 147.93 49.93 C 148.01 62.20 148.27 74.50 147.80 86.75 L 146.97 87.17 C 147.05 75.12 146.97 63.07 146.99 51.03 L 147.03 50.14 Z" />
<path fill="#5a5355" opacity="0.39" d=" M 199.50 52.83 C 199.84 52.93 200.52 53.11 200.86 53.20 C 201.14 60.67 201.22 68.21 200.81 75.67 L 200.04 76.16 C 200.01 68.68 200.89 61.13 199.57 53.72 L 199.50 52.83 Z" />
<path fill="#5a5355" opacity="0.39" d=" M 20.93 75.71 C 18.99 75.29 18.95 70.73 21.03 70.53 C 21.01 72.26 20.99 73.99 20.93 75.71 Z" />
<path fill="#5a5355" opacity="0.39" d=" M 253.33 77.92 C 253.53 78.41 253.93 79.38 254.13 79.87 L 253.25 79.70 L 252.83 78.69 L 253.33 77.92 Z" />
<path fill="#5a5355" opacity="0.39" d=" M 36.97 89.04 C 55.04 89.13 73.12 89.20 91.19 89.02 C 90.86 89.24 90.20 89.68 89.87 89.90 C 73.59 90.24 57.27 89.88 40.98 90.06 C 39.79 89.63 37.00 90.91 36.97 89.04 Z" />
<path fill="#5a5355" opacity="0.39" d=" M 162.79 89.10 C 171.27 89.12 179.75 89.20 188.23 89.02 C 187.35 90.42 185.40 89.82 184.03 90.06 C 179.36 90.07 174.68 89.98 170.00 90.06 C 167.57 90.00 164.98 90.33 162.79 89.10 Z" />
<path fill="#5a5355" opacity="0.39" d=" M 153.94 94.21 C 165.58 93.80 177.28 93.85 188.92 94.16 L 189.18 95.08 C 178.08 95.10 166.95 94.61 155.87 95.37 L 155.28 95.38 C 154.95 95.09 154.28 94.50 153.94 94.21 Z" />
<path fill="#5a5355" opacity="0.39" d=" M 308.87 118.94 C 306.60 118.67 309.05 115.59 310.22 117.34 C 309.88 117.74 309.20 118.54 308.87 118.94 Z" />
</g>
<g id="#F3A955ff">
<path fill="#F3A955" opacity="1.00" d=" M 289.97 22.30 C 291.23 22.08 292.50 21.95 293.78 21.93 C 297.28 21.97 300.78 21.95 304.28 21.89 C 305.52 21.95 306.75 22.10 307.97 22.35 C 308.47 22.53 309.45 22.91 309.95 23.09 C 315.59 23.68 320.69 26.61 325.38 29.63 C 335.03 35.95 341.78 46.21 344.44 57.38 C 346.74 68.07 345.48 79.63 340.18 89.27 C 333.05 103.04 318.47 112.35 303.11 113.73 C 291.17 114.62 278.77 111.23 269.48 103.56 C 262.16 97.52 255.95 89.32 254.13 79.87 C 253.93 79.38 253.53 78.41 253.33 77.92 C 251.39 70.65 251.98 62.86 253.76 55.61 C 258.08 39.70 271.61 26.03 288.01 23.07 C 288.50 22.88 289.48 22.50 289.97 22.30 M 281.31 34.30 C 276.60 35.80 272.83 40.11 272.16 45.03 C 270.84 52.57 277.33 60.23 284.98 60.14 C 292.30 60.75 299.02 54.27 298.90 46.98 C 299.28 38.23 289.50 31.28 281.31 34.30 M 315.36 40.52 C 309.97 42.11 305.74 47.30 305.70 52.99 C 305.30 59.66 310.75 65.66 317.23 66.59 C 325.87 68.11 334.52 59.26 332.34 50.66 C 330.84 43.29 322.60 38.25 315.36 40.52 M 296.42 62.45 C 292.45 63.88 291.41 69.68 294.63 72.40 C 297.73 75.51 303.46 73.55 304.45 69.40 C 305.75 64.94 300.67 60.59 296.42 62.45 M 274.35 69.40 C 269.64 70.93 265.97 75.30 265.33 80.21 C 264.19 87.29 269.85 94.54 276.98 95.17 C 284.55 96.36 292.42 89.78 292.01 82.00 C 292.51 73.18 282.50 66.33 274.35 69.40 M 309.34 75.44 C 304.55 76.49 300.37 80.32 299.27 85.15 C 297.28 92.25 302.28 99.96 309.40 101.44 C 317.48 103.58 326.24 96.32 325.78 88.02 C 325.73 79.94 317.17 73.42 309.34 75.44 Z" />
</g>
</svg>
