<svg width="20" height="20" viewBox="0 0 20 20" fill="none" xmlns="http://www.w3.org/2000/svg">
<path d="M5.56012 0H5.62145C6.0695 0.0132813 6.51208 0.254297 6.73122 0.651172C6.85153 0.854297 6.882 1.09453 6.87614 1.32734C6.87614 7.10859 6.87653 12.8898 6.87575 18.6715C6.88122 18.9625 6.83083 19.2676 6.65192 19.5059C6.43434 19.8145 6.05934 19.9754 5.69059 20H5.60856C5.20387 19.9898 4.78512 19.807 4.56598 19.4547C4.40583 19.2133 4.37301 18.9164 4.37731 18.6332C4.3777 12.8637 4.37653 7.09375 4.3777 1.32422C4.37301 1.01055 4.46833 0.691797 4.67301 0.450781C4.88864 0.183594 5.21833 0.0203125 5.56012 0Z" fill="#DCDCDF"/>
<path d="M14.3251 0H14.3696C14.7329 0.0132813 15.0942 0.170703 15.3258 0.455078C15.5423 0.704297 15.6321 1.03945 15.6227 1.36484C15.6223 7.13359 15.6235 12.9027 15.6223 18.6715C15.6255 18.9523 15.5833 19.2469 15.4169 19.4809C15.2024 19.8043 14.8169 19.9746 14.4383 20H14.3555C13.9716 19.9891 13.5758 19.8273 13.3489 19.507C13.1696 19.2688 13.1208 18.9629 13.1243 18.6723C13.1231 12.9039 13.1243 7.13555 13.1239 1.36719C13.1188 1.12852 13.1337 0.88125 13.2481 0.666016C13.4438 0.261719 13.8813 0.0113281 14.3251 0Z" fill="#DCDCDF"/>
</svg>
