<svg width="20" height="20" viewBox="0 0 20 20" fill="none" xmlns="http://www.w3.org/2000/svg">
<path d="M2.71168 0H2.87261C3.3691 0.0222656 3.84371 0.204688 4.27105 0.45C8.56793 2.91328 12.864 5.37773 17.1609 7.84141C17.5496 8.06875 17.9586 8.27344 18.2925 8.58164C18.6675 8.91719 18.9683 9.37305 19.005 9.88633C19.0461 10.3828 18.8191 10.8652 18.4878 11.2238C18.1296 11.6273 17.6476 11.8812 17.1855 12.1445C12.8914 14.607 8.59722 17.0703 4.30269 19.532C3.86676 19.7852 3.38238 19.9766 2.87379 20H2.69879C2.26715 19.9746 1.84176 19.7898 1.55621 19.4605C1.13199 18.9824 0.994489 18.3199 0.990193 17.6969C0.98863 12.5793 0.989411 7.46133 0.989802 2.34375C0.989021 1.71719 1.11715 1.04961 1.53629 0.561719C1.82496 0.216406 2.26519 0.0199219 2.71168 0Z" fill="#DCDCDF"/>
</svg>
