<svg width="22" height="18" viewBox="0 0 22 18" fill="none" xmlns="http://www.w3.org/2000/svg">
<path d="M9.97482 0.363277C11.5461 -0.098442 13.2448 -0.119067 14.8264 0.306089C16.25 0.683433 17.5728 1.4264 18.6462 2.43328C19.632 3.35578 20.4087 4.50093 20.8953 5.76046C21.6987 7.82015 21.6987 10.1784 20.8953 12.2381C20.2606 13.8839 19.1281 15.3314 17.6872 16.3477C16.2626 17.3639 14.5329 17.9428 12.784 17.993C11.3239 18.0436 9.85482 17.7239 8.54419 17.0808C7.08357 16.3683 5.82169 15.2512 4.94372 13.883C4.7281 13.5469 4.85325 13.0519 5.2006 12.8564C5.52872 12.6483 6.0031 12.757 6.21029 13.0852C6.83841 14.0466 7.68403 14.8678 8.67638 15.4481C10.0133 16.2502 11.6079 16.6092 13.16 16.4695C14.8208 16.3312 16.4243 15.6141 17.6356 14.4703C18.83 13.3537 19.6418 11.8359 19.9001 10.2211C20.1359 8.7825 19.9484 7.27593 19.3536 5.94468C18.7517 4.58812 17.7359 3.41953 16.4754 2.63531C15.3453 1.92703 14.0225 1.53187 12.6889 1.50328C11.1734 1.46156 9.64763 1.89187 8.38294 2.72906C7.23825 3.48093 6.30685 4.55343 5.72513 5.79328C5.29903 6.69234 5.06044 7.67812 5.01685 8.67187C5.58544 8.10609 6.15075 7.53703 6.71935 6.97078C6.8806 6.80578 7.11966 6.72609 7.34747 6.75796C7.69247 6.79312 7.9831 7.10296 7.99622 7.44984C8.01591 7.67578 7.91982 7.90031 7.75622 8.05453C6.76388 9.0464 5.77294 10.0406 4.77872 11.0306C4.50263 11.3184 3.99638 11.3184 3.72075 11.0297C2.72747 10.0387 1.73607 9.04453 0.743253 8.05312C0.579659 7.89984 0.485441 7.67578 0.504191 7.45125C0.516378 7.11562 0.786378 6.81703 1.11591 6.76125C1.36622 6.71484 1.62966 6.80953 1.80357 6.99281C2.3745 7.56234 2.94357 8.13328 3.51497 8.70281C3.57263 6.90234 4.18575 5.12437 5.25778 3.67593C6.41325 2.09718 8.09513 0.909839 9.97482 0.363277Z" fill="#DCDCDF"/>
</svg>
