<svg width="22" height="18" viewBox="0 0 22 18" fill="none" xmlns="http://www.w3.org/2000/svg">
<path d="M6.18922 0.633461C7.68922 0.0343982 9.35375 -0.141852 10.9475 0.117836C12.5319 0.371429 14.0408 1.06846 15.267 2.10252C16.5739 3.19518 17.562 4.66612 18.0725 6.29174C18.3181 7.06565 18.4541 7.87284 18.4841 8.68377C18.5722 8.62518 18.6448 8.54784 18.7184 8.4719C19.1717 8.01815 19.6259 7.56534 20.0788 7.11065C20.2255 6.95596 20.3919 6.79752 20.6122 6.76424C20.9839 6.68221 21.3852 6.93815 21.4747 7.30659C21.5413 7.55971 21.4695 7.84471 21.2811 8.02893C20.2817 9.03065 19.2809 10.0319 18.2788 11.0313C18.0027 11.3186 17.4964 11.3186 17.2217 11.0303C16.2205 10.0305 15.2197 9.03018 14.2203 8.02893C14.0005 7.81659 13.9414 7.46549 14.068 7.1894C14.1842 6.92784 14.4608 6.74549 14.7486 6.75205C14.9586 6.74643 15.1616 6.84205 15.3045 6.99299C15.8633 7.55127 16.4211 8.11049 16.9803 8.66784C16.9222 7.1158 16.3569 5.58909 15.3969 4.36846C14.5756 3.31659 13.467 2.49065 12.222 2.00877C10.9034 1.49174 9.43578 1.36987 8.04688 1.64174C6.44422 1.94924 4.95547 2.80612 3.87828 4.03096C2.97781 5.0458 2.36281 6.31002 2.12328 7.64549C1.85469 9.12252 2.03281 10.6802 2.64641 12.0517C3.28953 13.5053 4.41031 14.7419 5.79453 15.5228C7.13985 16.2925 8.72891 16.6188 10.2692 16.4599C12.47 16.2461 14.5395 14.9931 15.7503 13.1435C15.897 12.8871 16.19 12.7183 16.4881 12.7535C16.8088 12.7797 17.0947 13.0366 17.1481 13.3558C17.1969 13.57 17.1308 13.7955 17.0028 13.9703C16.0653 15.385 14.7214 16.5269 13.1698 17.2164C11.9338 17.7691 10.5716 18.0396 9.21782 17.9931C7.78344 17.9514 6.36172 17.5553 5.11157 16.8517C3.68703 16.0544 2.48563 14.8633 1.67891 13.4439C0.867971 12.0311 0.45969 10.3924 0.505627 8.76487C0.545471 7.00846 1.1211 5.26987 2.13547 3.83596C3.13766 2.40534 4.56406 1.27565 6.18922 0.633461Z" fill="#DCDCDF"/>
</svg>
