<svg width="24" height="24" viewBox="0 0 24 24" fill="none" xmlns="http://www.w3.org/2000/svg">
<path d="M15.7602 2.96463C15.9918 2.9065 16.2431 2.9365 16.4554 3.04572C17.819 3.72447 19.0227 4.71963 19.9467 5.93041C20.8654 7.12947 21.5076 8.53947 21.8029 10.0212C22.2229 12.101 21.9646 14.3135 21.0599 16.2345C20.1674 18.1498 18.6492 19.7651 16.7938 20.7762C16.552 20.9023 16.3096 21.064 16.026 21.0631C15.5835 21.0823 15.157 20.7701 15.0402 20.3431C14.8982 19.8917 15.1331 19.3657 15.561 19.166C16.9659 18.4667 18.157 17.3459 18.9374 15.9842C19.6017 14.8343 19.9677 13.5153 19.9968 12.1878C20.0315 10.7923 19.6945 9.38885 19.0218 8.16494C18.2432 6.73619 17.0179 5.55682 15.5606 4.83353C15.194 4.65869 14.9606 4.24572 15.0046 3.84119C15.0384 3.42775 15.3557 3.05791 15.7602 2.96463Z" fill="#DCDCDF"/>
<path d="M10.8015 4.1534C11.1872 4.07277 11.6105 4.24621 11.829 4.57433C11.956 4.75621 12.0052 4.98121 12.0001 5.20058C11.9991 9.74793 12.001 14.2957 11.9991 18.8431C12.0104 19.2195 11.7919 19.5907 11.4521 19.7548C11.1076 19.9362 10.6608 19.8889 10.3646 19.6348C8.94099 18.4498 7.51787 17.2643 6.09615 16.077C6.05162 16.0456 6.01037 15.9926 5.9499 16.0001C5.27958 15.9973 4.60927 16.0039 3.93943 15.9968C3.18287 15.9832 2.46427 15.4948 2.16802 14.7996C2.02974 14.4959 1.99083 14.1579 1.99974 13.8265C2.00255 12.53 1.99599 11.2334 2.00255 9.93683C2.01521 9.1198 2.58802 8.3548 3.36427 8.10449C3.63708 8.00746 3.93005 7.99433 4.21693 7.99949C4.79537 7.99949 5.3738 8.00043 5.95224 7.99949C6.01083 8.00605 6.05068 7.95402 6.0938 7.92449C7.49818 6.75027 8.9063 5.58074 10.3111 4.40746C10.4518 4.28558 10.6172 4.18855 10.8015 4.1534Z" fill="#DCDCDF"/>
<path d="M15.7223 8.03861C16.1043 7.92329 16.5473 8.06626 16.7878 8.38501C17.5917 9.44017 18.0239 10.7695 17.9981 12.0956C17.9817 13.3566 17.5523 14.6081 16.7892 15.6122C16.5726 15.8977 16.1934 16.0472 15.8404 15.9858C15.4706 15.9305 15.1481 15.6478 15.0435 15.2888C14.9451 14.977 15.0196 14.6269 15.2193 14.3714C15.7514 13.6538 16.0289 12.7547 15.9951 11.8622C15.9707 11.0611 15.6961 10.2708 15.2189 9.6272C15.052 9.40876 14.9667 9.12611 15.0117 8.85236C15.0628 8.47267 15.3543 8.14173 15.7223 8.03861Z" fill="#DCDCDF"/>
</svg>
